<svg width="64" height="24" viewBox="0 0 64 24" fill="none" xmlns="http://www.w3.org/2000/svg">
<path d="M14.7965 5.02888L16.1504 2.49832C15.7314 2.11148 15.2478 1.773 14.7159 1.46676C14.184 1.16051 13.6199 0.902619 13.0074 0.676963C12.3949 0.45131 11.734 0.290128 11.0571 0.177301C10.3801 0.064472 9.67092 0 8.96172 0C7.67226 0 6.52787 0.209537 5.52854 0.596372C4.52921 0.98321 3.67495 1.51511 2.99799 2.15984C2.3049 2.82068 1.78912 3.56212 1.43452 4.40027C1.07992 5.23842 0.902619 6.1088 0.902619 6.97918C0.902619 8.07522 1.04768 9.01007 1.35393 9.75151C1.64406 10.4929 2.04701 11.1216 2.53056 11.6212C3.0141 12.1209 3.57824 12.5238 4.20685 12.8301C4.81934 13.1363 5.46407 13.3942 6.12492 13.6038C6.76964 13.8133 7.41437 14.0067 8.04298 14.1679C8.65547 14.3452 9.21961 14.5386 9.70316 14.7643C10.1867 14.9899 10.5897 15.2801 10.8959 15.6185C11.186 15.9731 11.3472 16.4083 11.3472 16.9563C11.3472 17.9073 11.0732 18.6004 10.5252 19.0356C9.97716 19.4708 9.20349 19.6803 8.22028 19.6803C7.47884 19.6803 6.85023 19.5836 6.31833 19.3741C5.77032 19.1807 5.30289 18.955 4.88381 18.6971C4.46474 18.4553 4.09402 18.2297 3.77166 18.0201C3.44929 17.8267 3.12693 17.7139 2.80457 17.7139C2.54668 17.7139 2.32102 17.7784 2.11148 17.9073C1.90195 18.0363 1.74077 18.1813 1.61182 18.3586L0 20.9053C0.45131 21.3727 0.999328 21.7918 1.62794 22.1625C2.24043 22.5494 2.91739 22.8717 3.6266 23.1457C4.3358 23.4197 5.06111 23.6293 5.81867 23.7743C6.57623 23.9355 7.31766 24 8.0591 24C9.38079 24 10.5735 23.8066 11.6212 23.4036C12.6689 23.0007 13.5554 22.4527 14.2646 21.7435C14.9738 21.0343 15.5218 20.2122 15.9087 19.2612C16.2794 18.3264 16.4728 17.3109 16.4728 16.2149C16.4728 15.2478 16.3116 14.4097 16.0215 13.7166C15.7152 13.0235 15.3123 12.4271 14.8287 11.9436C14.3452 11.46 13.7811 11.0732 13.1525 10.7508C12.5238 10.4446 11.8791 10.1706 11.2344 9.94493C10.5735 9.71927 9.92881 9.50974 9.3002 9.31632C8.67159 9.1229 8.10745 8.91337 7.62391 8.68771C7.14036 8.46205 6.73741 8.20416 6.44728 7.8818C6.14103 7.57555 5.99597 7.18872 5.99597 6.70517C5.99597 5.96373 6.23774 5.38348 6.73741 4.94829C7.23707 4.5131 7.99463 4.28744 9.02619 4.28744C9.60645 4.28744 10.1383 4.36803 10.6058 4.52921C11.0571 4.6904 11.4762 4.85158 11.8308 5.045C12.1854 5.23842 12.5077 5.41571 12.7978 5.5769C13.088 5.73808 13.3459 5.80255 13.6038 5.80255C13.8778 5.80255 14.1034 5.73808 14.2807 5.60913C14.458 5.48019 14.6353 5.28677 14.7965 5.02888Z" fill="#2B6259"/>
<path d="M29.4709 19.4385C28.7294 19.4385 28.0847 19.3257 27.5044 19.084C26.9242 18.8422 26.4406 18.4876 26.0538 18.0363C25.6509 17.585 25.3446 17.0208 25.1351 16.3761C24.9255 15.7314 24.8288 14.9899 24.8288 14.1518V0.257892H19.3809V14.1679C19.3809 15.6185 19.6065 16.9402 20.074 18.133C20.5253 19.3418 21.2022 20.3734 22.0726 21.2438C22.943 22.1142 23.9907 22.7911 25.2479 23.2747C26.489 23.7582 27.8913 24 29.4709 24C31.0182 24 32.4205 23.7582 33.6777 23.2747C34.9188 22.7911 35.9826 22.1142 36.853 21.2438C37.7234 20.3734 38.3842 19.3418 38.8517 18.133C39.3191 16.9402 39.5609 15.6185 39.5609 14.1679V0.257892H34.1129V14.1679C34.1129 15.006 34.0001 15.7475 33.7905 16.3922C33.581 17.0369 33.2748 17.585 32.8879 18.0363C32.485 18.4876 32.0014 18.8422 31.4212 19.084C30.8409 19.3257 30.1962 19.4385 29.4709 19.4385Z" fill="#B89563"/>
<path d="M51.4568 11.2989H49.2648V4.33579H51.4568C52.8591 4.33579 53.8907 4.62592 54.5677 5.20618C55.2446 5.78643 55.5831 6.59234 55.5831 7.62391C55.5831 8.13969 55.5025 8.62324 55.3574 9.07455C55.1963 9.52586 54.9545 9.91269 54.6321 10.2351C54.2936 10.5735 53.8585 10.8314 53.3427 11.0248C52.8269 11.2183 52.1983 11.2989 51.4568 11.2989ZM63.0297 23.7421L58.0331 15.5702C57.7752 15.1995 57.5012 14.8771 57.1949 14.6031C56.8726 14.3291 56.5502 14.1034 56.1956 13.91C56.9532 13.6199 57.6301 13.2492 58.2104 12.7979C58.7906 12.3465 59.2903 11.8469 59.6932 11.2666C60.0801 10.6864 60.3863 10.0578 60.5959 9.38079C60.7893 8.70383 60.9021 7.99463 60.9021 7.22095C60.9021 6.22163 60.7248 5.30289 60.3863 4.44862C60.0317 3.61048 59.4837 2.86904 58.7262 2.24043C57.9686 1.62794 56.9854 1.14439 55.7926 0.789792C54.5999 0.435191 53.1493 0.257892 51.4568 0.257892H43.8168V23.7421H49.2648V15.0544H50.6509C51.07 15.0544 51.3924 15.135 51.618 15.2639C51.8437 15.3929 52.0371 15.6024 52.2305 15.8925L56.1311 22.7105C56.518 23.4036 57.1788 23.7421 58.0975 23.7421H63.0297Z" fill="#C75041"/>
</svg>
